<?xml version="1.0" encoding="UTF-8"?>
<svg id="Layer_2" data-name="Layer 2" xmlns="http://www.w3.org/2000/svg" viewBox="0 0 776.05 863.3">
  <defs>
    <style>
      .cls-1 {
        fill: #7d91a3;
      }

      .cls-2 {
        fill: #61243a;
      }

      .cls-3 {
        fill: #7e91a3;
      }
    </style>
  </defs>
  <g id="Layer_1-2" data-name="Layer 1">
    <g>
      <polygon class="cls-1" points="125.23 47.89 649.52 47.89 649.52 552.67 580.09 552.67 580.09 539.08 635.9 539.08 635.9 62.45 139.51 62.13 139.51 538.43 195.31 539.08 195.31 552.67 125.23 552.67 125.23 47.89"/>
      <path class="cls-2" d="M370.51,302.22v33.01s-150.29-.05-150.29-.05c-.89-.37-1.82.62-2.19.69-2.9.57-4.82.74-6.77,3.27-5.47,7.1-5.29,27.84,5.44,30.09,34.42,1.41,69.25-1.18,103.54.93,18.34,1.13,29.89,2.55,40.81,18.83,22.74,33.92,5.86,82.52-38.84,80.87l-147-.03v-33h150.86c.66,0,4.27-1.54,5.09-2.05,7.16-4.41,7.43-16.26,4.83-23.37-2.21-6.03-5.21-7.8-11.53-8.24-1.02-.97-2.31-.64-3.54-.67-33.81-.67-68.6,1.46-102.22.02-61.69-2.64-57.42-98.8.95-100.33l150.89.03Z"/>
      <path class="cls-2" d="M444.48,109.37h155.08v32.36l-148.99-.05c-.86-.36-1.86.64-2.19.69-1.51.23-2.52,0-4.25.62-9.93,3.56-9.95,28.82,0,32.42,1.73.62,2.74.39,4.25.62.37.06.99.6,2.19.69,32.14,2.43,67.67-1.42,100.33-.05,20.43.86,33.55,6.58,42.94,25.45,17.61,35.39-2.63,77.5-44.89,74.21h-144.7v-33h151.51c3.64,0,8.63-5.71,9.73-9.07,3.37-10.31.19-23.54-12.3-24.61-24.01-2.05-54.15.03-78.86.02-.67-1.07-2.46-.64-3.56-.66-8.22-.1-16.85.43-24.99.01-58.54-3.04-54.33-96.39-1.3-99.66Z"/>
      <path class="cls-2" d="M381.54,377.94c1.31-30.17,23.9-58.12,51.28-69.55,20.6-8.59,62.36-7.26,85.33-6.2,86.37,4.02,113.68,114.79,39.02,157.39-30.53,17.42-68.87,7.73-102.64,10.25-36.67-5.42-71.19-37.09-72.99-75.07-.25-5.28-.23-11.54,0-16.83ZM552.61,350.33c-9.65-9.41-21-14.24-34.49-15.1-15.94-1.02-39.2-1.02-55.14,0-45.7,2.93-66.18,58.8-31.13,89.28,7.87,6.85,18.69,11.59,29.16,12.34,16.65,1.19,43.77,1.22,60.4,0,41.81-3.07,61.89-56.62,31.22-86.52Z"/>
      <path class="cls-2" d="M381.54,109.37v87.68c-2.47,42.74-36.64,77.55-79.81,79.28-24.48.98-52,.65-76.57,0-10.48-.28-19.37-.56-28.75-5.95-27.52-15.81-27.95-55.44-9.52-78.49,9.43-11.79,20.29-14.52,35.02-15.23,16.65-.79,33.91.59,50.62,0v33.01s-52.27-.03-52.27-.03c-16.25.52-16.88,31-1.76,33.53l85.42.08c26.01-4.05,44.28-25.8,44.52-52.02v-81.86h33.1Z"/>
      <path class="cls-1" d="M244.63,631.62l1.29,1.29v-29.12s7.14,0,7.14,0v40.77h-9.73l-14.28-27.83v27.5c-1.88,1.9-5.28.64-7.79.97v-41.42h9.41l13.95,27.83Z"/>
      <path class="cls-1" d="M244.63,673.04c7.38.93,21.91-2.7,26.89,3.92,4.44,5.89,3,18.71-5.48,20.03l9.73,17.47h-10.38l-8.1-15.54-4.88-.64v16.18h-7.79v-41.42ZM263.12,680.8c-3.12-.52-7.43.38-10.71,0v9.71c2.92-.24,9.79.73,12-1.3,2.34-2.15,1.71-7.9-1.29-8.41Z"/>
      <path class="cls-1" d="M330.93,742.28c9.4.91,27.27-4,29.14,9.44,1.04,7.44-1.05,12.06-7.72,15.47l9.72,16.5h-9.41l-9.07-15.54-4.88-.64v16.18h-7.79v-41.42ZM338.71,759.75h10.06c4.21,0,4.56-9.71.65-9.71h-10.71v9.71Z"/>
      <path class="cls-1" d="M425.34,673.04c11.96,1.7,12.69,20.87,1.6,24.29l9.1,17.13c-2.19-.39-7.42.7-9.09-.31-1.43-.87-7.09-13.6-8.74-15.87l-4.88-.64v16.83h-7.79v-41.42c6.14.62,13.86-.84,19.79,0ZM424.04,680.8c-3.14-.52-7.42.38-10.71,0v9.71c4.67-.14,13.68,1.47,13.44-5.4-.05-1.39-1.18-4.05-2.73-4.31Z"/>
      <path class="cls-1" d="M317.3,772.05c-3.7,16.05-25.62,16.33-29.55,1.97-2.36-8.61-2.53-26.93,7.5-30.76s19.92.45,22.05,11.31v17.47ZM307.34,774.42c2.84-2.8,2.79-15.46,1.89-19.24-1.71-7.14-12.42-7.25-13.84,1.17-.52,3.09-.52,12.57.51,15.36,1.63,4.41,8.18,5.92,11.44,2.71Z"/>
      <path class="cls-1" d="M186.23,616.09v16.18c-1.23,6.97-5.03,12.28-12.63,12.97-9.79.88-15.56-2.59-17.22-12.32.28-5.51-.38-11.36,0-16.83.77-11.07,10.87-15.16,20.76-11.97,5.78,1.87,7.98,6.35,9.09,11.97ZM170.5,611.03c-7.85.88-6.98,13.06-6.34,18.97,1.08,10.07,13.2,10.08,14.28,0,.67-6.22,1.51-20.03-7.94-18.97Z"/>
      <polygon class="cls-1" points="190.77 673.04 190.77 680.8 170.65 680.8 170.65 689.86 187.52 689.86 187.52 697.63 170.65 697.63 170.65 706.69 190.77 706.69 190.77 714.45 162.87 714.45 162.87 673.04 190.77 673.04"/>
      <polygon class="cls-1" points="288.1 673.04 315.36 673.03 315.35 680.8 295.89 680.8 295.89 689.86 312.76 689.86 312.76 697.63 295.89 697.63 295.89 706.69 315.35 706.69 315.36 714.46 288.1 714.45 288.1 673.04"/>
      <path class="cls-1" d="M620.97,775.93h19.47s0,7.77,0,7.77h-27.9v-41.42h27.9v7.77h-20.12c.39,2.32-.84,7.57.65,9.06,1.61,1.61,13.19.14,16.22.65v7.12h-16.87s.65,9.06.65,9.06Z"/>
      <path class="cls-1" d="M439.77,742.43c8.56-1.44,17.48,2.02,18.82,11.34.65,4.53.68,17.43-.82,21.49-4.61,12.48-26.37,11.45-28.7-2.4-.65-3.85-.59-17.1.29-20.76,1.05-4.37,5.93-8.92,10.42-9.67ZM438.86,774.42c3.26,3.21,9.81,1.7,11.44-2.71,1.03-2.79,1.03-12.27.51-15.36-1.42-8.42-12.14-8.31-13.84-1.17-.9,3.78-.95,16.44,1.89,19.24Z"/>
      <path class="cls-1" d="M119.51,710.45c-1.16-1.97,2.35-4.9,2.53-6.96,5.96,1.68,12.29,6.06,18.59,2.05,2.62-1.67,2.75-4.61.14-6.26-5.23-3.31-17.98-.71-19.38-10.45-2.63-18.34,16.6-19.36,28.21-11.92l-3.38,6.45c-.92.26-4.4-1.97-5.93-2.37-3.69-.96-13.71-.81-10.71,5.48,2.41,5.04,18.86,1.85,20.79,12.28,2.68,14.48-11.73,18.27-23.08,15.25-1.3-.35-7.35-2.77-7.8-3.54Z"/>
      <path class="cls-1" d="M146.63,753.28c-3.69-4.41-22.56-5-16.52,3.22,3.27,4.45,18.49,1.58,20.27,11.49,3.3,18.39-19.75,19.62-30.91,11.73l2.56-6.98c4.59,1.22,7.91,4.17,13.27,3.89,3.36-.18,9.38-2.77,6.73-6.77-3.18-4.8-19.06-.77-20.64-11.78-2.58-17.99,17.08-19.47,28.43-11.61l-3.19,6.81Z"/>
      <path class="cls-1" d="M169.36,742.28c.55,8.29-.72,17.45-.05,25.64.1,1.23.6,1.7.7,2.19.72,3.64,1.73,6.08,6.27,6.25s6.45-2.43,7.36-6.25c.14-.57.59-.93.7-2.19.71-8.15-.62-17.37-.05-25.64h7.79v28.15c0,.8-1.19,5.14-1.61,6.15-4,9.66-21.3,10.44-26.83,1.51-.5-.81-2.05-4.42-2.05-5.07v-30.74h7.79Z"/>
      <path class="cls-1" d="M357.53,714.45l15.5-41.04,4.97-.43,16.51,41.46-8.44-.31c-1.16-.7-1.63-4.61-2.52-5.76-.77-1-12.61-.15-14.9-.31l-2.03,6.38h-9.08ZM380.89,700.22c-.18-1.16-4.17-13.73-5.18-12.94l-3.9,12.94h9.08Z"/>
      <path class="cls-1" d="M487.24,673.1l14.99,41.35-8.35-.08-2.11-6.31h-14.44s-2.98,6.1-2.98,6.1l-8.46.29,15.24-40.78,6.11-.57ZM489.25,700.22l-4.87-13.6-4.87,13.6h9.73Z"/>
      <path class="cls-1" d="M205.69,742.28c8.61.44,26.67-2.82,29.05,8.88,2.99,14.66-9.35,18.12-21.27,17v15.53h-7.79v-41.42ZM223.54,750.05c-2.73-.57-7.1.42-10.06,0v10.35c4.79-.23,12.98,1.58,13.49-5.01.16-2.04-1.38-4.91-3.43-5.35Z"/>
      <path class="cls-1" d="M247.22,742.28c10.34.42,27.86-3.26,29.14,11.4,1.15,13.18-10.85,15.28-21.35,14.49v15.53h-7.79v-41.42ZM255.01,760.4c5.78.05,14.85,1.36,12.84-7.31-.25-1.07-1.8-3.05-2.78-3.05h-10.06v10.35Z"/>
      <path class="cls-1" d="M223.96,687.17c-1.16-7.7-12.14-9-13.09-.88-.34,2.86-.42,13.51.15,16.06,1.08,4.78,7.35,5.54,10.58,2.42,1.38-1.33,1.48-4.06,2.67-4.46l8.02-.08c-1.9,10.48-9.3,16.87-20.26,14.05-4.78-1.23-8.85-5.58-9.53-10.55-.57-4.14-.53-15.15-.06-19.36,1.91-16.97,28.62-15,29.74,1.97-.27,1.61-6.77.87-8.22.84Z"/>
      <path class="cls-1" d="M571.01,753.93c.94-5.77,3-10.4,9.56-11.49,8.74-1.46,15.16.73,18.45,9.12.52,1.31,2.37,4.66.23,4.97-.95.14-7.13.17-7.41-.08-1.09-7.68-11.47-9.19-12.89-.74-.61,3.62-.71,15.07,1.24,17.87,3.66,5.23,10.49,1.83,12.01-3.49l8,.03c-1.35,11.11-11.21,17.03-21.77,12.97-5.31-2.04-6.62-6.08-7.43-11.03v-18.12Z"/>
      <polygon class="cls-1" points="472.38 742.28 498.99 742.28 498.98 750.05 480.17 750.05 480.17 759.75 496.39 759.75 496.39 767.52 480.17 767.52 480.17 783.7 472.38 783.7 472.38 742.28"/>
      <polygon class="cls-1" points="511.31 742.28 537.92 742.28 537.92 750.05 519.1 750.05 519.1 759.75 534.67 759.75 534.67 767.52 519.1 767.52 519.1 783.7 511.31 783.7 511.31 742.28"/>
      <polygon class="cls-1" points="525.59 714.45 517.8 714.45 517.8 680.8 506.12 680.8 506.12 673.04 536.62 673.04 536.62 680.8 526.24 680.8 525.59 714.45"/>
      <polygon class="cls-3" points="334.82 680.8 323.79 680.8 323.79 673.04 354.29 673.04 354.29 680.8 343.25 680.8 343.25 714.45 335.47 714.45 334.82 680.8"/>
      <polygon class="cls-3" points="379.59 750.05 368.56 750.05 368.56 742.28 399.06 742.28 399.06 750.05 388.03 750.05 388.03 783.7 380.24 783.7 379.59 750.05"/>
      <path class="cls-3" d="M357.53,561.08h-4.55s0-33.66,0-33.66c12.09.97,33.76-4.72,31.09,14.51-.59,4.23-3.17,5.19-5.14,8.46l5.85,10.68c-1.62-.22-4.51.52-5.85-.31-1.45-.89-3.87-8.06-5.18-9.39-1.58-1.61-13.22-.13-16.23-.65v10.36ZM358.5,531.96l-.97.97v12.94l.97.97h12.33c.95,0,5.16-1.02,6.14-1.64,3.76-2.41,3.48-9.62-.38-11.86-.44-.25-3.58-1.38-3.81-1.38h-14.28Z"/>
      <polygon class="cls-1" points="283.56 644.56 275.77 644.56 275.77 611.88 274.8 610.91 264.74 610.91 264.74 603.79 294.59 603.79 294.59 610.91 283.56 611.56 283.56 644.56"/>
      <path class="cls-1" d="M133.67,632.91c.2-.69.57-.89.7-2.19.81-8.49-.69-18.3-.05-26.94h7.79c-.74,9.73.99,20.86,0,30.42-.93,9-8.21,12.08-16.49,10.95-2.21-.3-9.62-3.73-8.09-6.34,2.04-.23,4.63-3.73,6.2-3.87s7.21,7.3,9.94-2.03Z"/>
      <path class="cls-3" d="M536.62,561.07l-5.74-.1-4.43-9.63-16.5.43-3.93,9.2-5.09.1,14.38-33.54,6.71.53,14.59,33ZM512.61,546.84h11.36c.08,0,1.26-.92.7-1.32l-5.89-12.92-6.16,14.24Z"/>
      <path class="cls-3" d="M273.82,561.07c-8.07,2.31-6.23-6.24-9.4-9.06-1.75-1.56-13.08-.24-16.13-.53-3.65,4.08-2.42,11.42-10.16,9.6l14.91-33.34,6.19.33,14.59,33.01ZM250.47,546.84h11.68c-1.07-4.05-3.07-8.42-4.9-12.29-.33-.7.04-1.65-1.26-1.3-.71.19-6.06,13.09-5.52,13.59Z"/>
      <rect class="cls-1" x="199.2" y="603.14" width="8.44" height="41.42"/>
      <rect class="cls-1" x="447.72" y="673.04" width="8.44" height="41.42"/>
      <rect class="cls-1" x="548.95" y="742.28" width="8.44" height="41.42"/>
      <path class="cls-3" d="M473,555.94l.04,4.17c-7.9,2.24-24.07,4.04-25.32-7.11-.43-3.86-.45-17.38.79-20.57,2.69-6.91,17.15-5.64,22.96-3.73l-1.45,3.87c-5.07-.43-16.94-2.89-17.76,4.24-.39,3.33-.39,11.58,0,14.91,1.12,9.69,19.63,3.13,20.75,4.23Z"/>
      <path class="cls-3" d="M306.27,532.6v8.41h13.63l-1.62,4.53h-12v15.53h-4.54v-33.65h24.01s0,4.53,0,4.53c-5.82.55-12.88-.74-18.53-.02-.52.07-.97.03-.94.66Z"/>
      <polygon class="cls-3" points="419.82 527.43 419.82 561.08 415.93 561.08 415.93 531.96 410.73 531.96 410.74 527.43 419.82 527.43"/>
    </g>
  </g>
</svg>